<mxfile host="app.diagrams.net" modified="2023-12-19T18:20:32.519Z" agent="Mozilla/5.0 (Windows NT 10.0; Win64; x64) AppleWebKit/537.36 (KHTML, like Gecko) Chrome/118.0.5993.771 YaBrowser/23.11.2.771 Yowser/2.5 Safari/537.36" etag="mrbjOywAb9EMhGNRUy0k" version="22.1.11" type="device">
  <diagram name="main" id="qDDoVC5fQ8-TyryeN--b">
    <mxGraphModel dx="1050" dy="575" grid="0" gridSize="10" guides="1" tooltips="1" connect="1" arrows="1" fold="1" page="1" pageScale="1" pageWidth="827" pageHeight="1169" math="0" shadow="0">
      <root>
        <mxCell id="0" />
        <mxCell id="1" parent="0" />
        <mxCell id="dFdFORKUMIfsB77MUAuY-7" value="" style="endArrow=classic;html=1;rounded=0;" parent="1" source="X1hVKPWbr1fi0kDDvSzz-6" target="dFdFORKUMIfsB77MUAuY-2" edge="1">
          <mxGeometry width="50" height="50" relative="1" as="geometry">
            <mxPoint x="636" y="309.5" as="sourcePoint" />
            <mxPoint x="681" y="308.5" as="targetPoint" />
          </mxGeometry>
        </mxCell>
        <mxCell id="dFdFORKUMIfsB77MUAuY-2" value="" style="rounded=0;whiteSpace=wrap;html=1;" parent="1" vertex="1">
          <mxGeometry x="658" y="257.5" width="120" height="60" as="geometry" />
        </mxCell>
        <mxCell id="dFdFORKUMIfsB77MUAuY-3" value="" style="rounded=0;whiteSpace=wrap;html=1;" parent="1" vertex="1">
          <mxGeometry x="671" y="268.5" width="120" height="60" as="geometry" />
        </mxCell>
        <mxCell id="dFdFORKUMIfsB77MUAuY-6" value="" style="endArrow=classic;html=1;rounded=0;" parent="1" source="X1hVKPWbr1fi0kDDvSzz-7" target="dFdFORKUMIfsB77MUAuY-3" edge="1">
          <mxGeometry width="50" height="50" relative="1" as="geometry">
            <mxPoint x="650" y="322.5" as="sourcePoint" />
            <mxPoint x="695" y="321.5" as="targetPoint" />
          </mxGeometry>
        </mxCell>
        <mxCell id="X1hVKPWbr1fi0kDDvSzz-1" value="Client" style="rounded=0;whiteSpace=wrap;html=1;" parent="1" vertex="1">
          <mxGeometry x="97" y="197.5" width="120" height="60" as="geometry" />
        </mxCell>
        <mxCell id="X1hVKPWbr1fi0kDDvSzz-2" value="RobotManager" style="rounded=0;whiteSpace=wrap;html=1;" parent="1" vertex="1">
          <mxGeometry x="305" y="270" width="120" height="60" as="geometry" />
        </mxCell>
        <mxCell id="X1hVKPWbr1fi0kDDvSzz-3" value="" style="endArrow=classic;html=1;rounded=0;" parent="1" source="X1hVKPWbr1fi0kDDvSzz-1" target="X1hVKPWbr1fi0kDDvSzz-2" edge="1">
          <mxGeometry width="50" height="50" relative="1" as="geometry">
            <mxPoint x="387" y="323" as="sourcePoint" />
            <mxPoint x="437" y="273" as="targetPoint" />
          </mxGeometry>
        </mxCell>
        <mxCell id="X1hVKPWbr1fi0kDDvSzz-4" value="DB" style="shape=cylinder3;whiteSpace=wrap;html=1;boundedLbl=1;backgroundOutline=1;size=15;" parent="1" vertex="1">
          <mxGeometry x="335" y="370" width="60" height="80" as="geometry" />
        </mxCell>
        <mxCell id="X1hVKPWbr1fi0kDDvSzz-5" value="" style="endArrow=classic;html=1;rounded=0;" parent="1" source="X1hVKPWbr1fi0kDDvSzz-2" target="X1hVKPWbr1fi0kDDvSzz-4" edge="1">
          <mxGeometry width="50" height="50" relative="1" as="geometry">
            <mxPoint x="387" y="323" as="sourcePoint" />
            <mxPoint x="437" y="273" as="targetPoint" />
          </mxGeometry>
        </mxCell>
        <mxCell id="X1hVKPWbr1fi0kDDvSzz-6" value="" style="rounded=0;whiteSpace=wrap;html=1;" parent="1" vertex="1">
          <mxGeometry x="493" y="258.5" width="120" height="60" as="geometry" />
        </mxCell>
        <mxCell id="X1hVKPWbr1fi0kDDvSzz-7" value="" style="rounded=0;whiteSpace=wrap;html=1;" parent="1" vertex="1">
          <mxGeometry x="506" y="269.5" width="120" height="60" as="geometry" />
        </mxCell>
        <mxCell id="X1hVKPWbr1fi0kDDvSzz-8" value="Robot" style="rounded=0;whiteSpace=wrap;html=1;" parent="1" vertex="1">
          <mxGeometry x="520" y="282.5" width="120" height="60" as="geometry" />
        </mxCell>
        <mxCell id="X1hVKPWbr1fi0kDDvSzz-9" value="" style="endArrow=classic;html=1;rounded=0;" parent="1" source="X1hVKPWbr1fi0kDDvSzz-2" target="X1hVKPWbr1fi0kDDvSzz-7" edge="1">
          <mxGeometry width="50" height="50" relative="1" as="geometry">
            <mxPoint x="387" y="323" as="sourcePoint" />
            <mxPoint x="437" y="273" as="targetPoint" />
          </mxGeometry>
        </mxCell>
        <mxCell id="dFdFORKUMIfsB77MUAuY-4" value="ScreenAnalyzer" style="rounded=0;whiteSpace=wrap;html=1;" parent="1" vertex="1">
          <mxGeometry x="685" y="281.5" width="120" height="60" as="geometry" />
        </mxCell>
        <mxCell id="dFdFORKUMIfsB77MUAuY-5" value="" style="endArrow=classic;html=1;rounded=0;" parent="1" source="X1hVKPWbr1fi0kDDvSzz-8" target="dFdFORKUMIfsB77MUAuY-4" edge="1">
          <mxGeometry width="50" height="50" relative="1" as="geometry">
            <mxPoint x="480" y="410.5" as="sourcePoint" />
            <mxPoint x="530" y="360.5" as="targetPoint" />
          </mxGeometry>
        </mxCell>
        <mxCell id="dFdFORKUMIfsB77MUAuY-8" value="" style="endArrow=classic;html=1;rounded=0;" parent="1" source="X1hVKPWbr1fi0kDDvSzz-2" target="X1hVKPWbr1fi0kDDvSzz-8" edge="1">
          <mxGeometry width="50" height="50" relative="1" as="geometry">
            <mxPoint x="435" y="310" as="sourcePoint" />
            <mxPoint x="516" y="310" as="targetPoint" />
          </mxGeometry>
        </mxCell>
        <mxCell id="dFdFORKUMIfsB77MUAuY-9" value="" style="endArrow=classic;html=1;rounded=0;" parent="1" source="X1hVKPWbr1fi0kDDvSzz-2" target="X1hVKPWbr1fi0kDDvSzz-6" edge="1">
          <mxGeometry width="50" height="50" relative="1" as="geometry">
            <mxPoint x="435" y="310" as="sourcePoint" />
            <mxPoint x="516" y="310" as="targetPoint" />
          </mxGeometry>
        </mxCell>
        <mxCell id="gvI1NIvtJ5e9DJtmcpNP-2" value="Client" style="rounded=0;whiteSpace=wrap;html=1;" vertex="1" parent="1">
          <mxGeometry x="97" y="342.5" width="120" height="60" as="geometry" />
        </mxCell>
        <mxCell id="gvI1NIvtJ5e9DJtmcpNP-4" value="" style="endArrow=classic;html=1;rounded=0;" edge="1" parent="1" source="gvI1NIvtJ5e9DJtmcpNP-2" target="X1hVKPWbr1fi0kDDvSzz-2">
          <mxGeometry width="50" height="50" relative="1" as="geometry">
            <mxPoint x="237" y="268" as="sourcePoint" />
            <mxPoint x="325" y="299" as="targetPoint" />
          </mxGeometry>
        </mxCell>
        <mxCell id="gvI1NIvtJ5e9DJtmcpNP-5" value="..." style="text;html=1;strokeColor=none;fillColor=none;align=center;verticalAlign=middle;whiteSpace=wrap;rounded=0;" vertex="1" parent="1">
          <mxGeometry x="127" y="285" width="60" height="30" as="geometry" />
        </mxCell>
      </root>
    </mxGraphModel>
  </diagram>
</mxfile>
